<?xml version="1.0" encoding="UTF-8"?>
<svg id="Laag_2" data-name="Laag 2" xmlns="http://www.w3.org/2000/svg" viewBox="0 0 233.75 143.16">
  <defs>
    <style>
      .cls-1 {
        fill: #fff;
      }
    </style>
  </defs>
  <g id="Laag_1-2" data-name="Laag 1">
    <g>
      <path class="cls-1" d="M131.59,143.1H65.94c-12.94,0-23.39-1.76-31.36-5.27-7.96-3.51-14.55-8.55-19.75-15.12-5.2-6.57-8.97-14.21-11.32-22.92-2.34-8.72-3.51-17.95-3.51-27.7,0-15.28,1.74-27.13,5.22-35.55,3.48-8.42,8.31-15.48,14.49-21.17,6.18-5.69,12.81-9.48,19.9-11.36C49.29,1.4,58.07,.1,65.94,.1h65.65V143.1Zm-44.19-32.38V32.58h-10.83c-9.23,0-15.8,1.02-19.7,3.07s-6.96,5.62-9.17,10.73c-2.21,5.1-3.32,13.38-3.32,24.83,0,15.15,2.47,25.52,7.41,31.12,4.94,5.59,13.14,8.39,24.58,8.39h11.02Z"/>
      <path class="cls-1" d="M112.26,0h73.54c16.02,0,28.01,3.81,35.99,11.43,7.97,7.62,11.96,18.46,11.96,32.52s-4.35,25.75-13.04,33.89c-8.69,8.14-21.96,12.21-39.79,12.21h-24.22v53.12h-44.43V0Zm44.43,61.04h10.84c8.53,0,14.52-1.48,17.97-4.44,3.45-2.96,5.18-6.75,5.18-11.38s-1.5-8.3-4.49-11.43c-3-3.12-8.63-4.69-16.89-4.69h-12.6v31.93Z"/>
    </g>
  </g>
</svg>